<?xml version="1.0" encoding="UTF-8"?>
<mxfile host="app.diagrams.net" modified="2025-01-28T10:00:00.000Z" agent="5.0" etag="xxx" version="22.1.16" type="device">
  <diagram name="ECommerce Architecture" id="architecture">
    <mxGraphModel dx="1422" dy="794" grid="1" gridSize="10" guides="1" tooltips="1" connect="1" arrows="1" fold="1" page="1" pageScale="1" pageWidth="1169" pageHeight="827" math="0" shadow="0">
      <root>
        <mxCell id="0" />
        <mxCell id="1" parent="0" />
        
        <!-- Title -->
        <mxCell id="title" value="ECommerce System Architecture" style="text;html=1;strokeColor=none;fillColor=none;align=center;verticalAlign=middle;whiteSpace=wrap;rounded=0;fontSize=24;fontStyle=1;" vertex="1" parent="1">
          <mxGeometry x="400" y="20" width="300" height="40" as="geometry" />
        </mxCell>

        <!-- Client Layer -->
        <mxCell id="client-layer" value="Client Layer" style="swimlane;fontStyle=1;align=center;verticalAlign=top;childLayout=stackLayout;horizontal=1;startSize=30;horizontalStack=0;resizeParent=1;resizeParentMax=0;resizeLast=0;collapsible=1;marginBottom=0;whiteSpace=wrap;html=1;fillColor=#dae8fc;strokeColor=#6c8ebf;" vertex="1" parent="1">
          <mxGeometry x="40" y="80" width="200" height="120" as="geometry" />
        </mxCell>
        
        <mxCell id="browser" value="Web Browser&#xa;(localhost:3030)" style="rounded=1;whiteSpace=wrap;html=1;fillColor=#fff2cc;strokeColor=#d6b656;" vertex="1" parent="client-layer">
          <mxGeometry y="40" width="200" height="60" as="geometry" />
        </mxCell>

        <!-- Frontend Layer -->
        <mxCell id="frontend-layer" value="Frontend Layer" style="swimlane;fontStyle=1;align=center;verticalAlign=top;childLayout=stackLayout;horizontal=1;startSize=30;horizontalStack=0;resizeParent=1;resizeParentMax=0;resizeLast=0;collapsible=1;marginBottom=0;whiteSpace=wrap;html=1;fillColor=#d5e8d4;strokeColor=#82b366;" vertex="1" parent="1">
          <mxGeometry x="280" y="80" width="200" height="160" as="geometry" />
        </mxCell>
        
        <mxCell id="nextjs" value="Next.js App&#xa;(React + TypeScript)" style="rounded=1;whiteSpace=wrap;html=1;fillColor=#fff2cc;strokeColor=#d6b656;" vertex="1" parent="frontend-layer">
          <mxGeometry y="40" width="200" height="40" as="geometry" />
        </mxCell>
        
        <mxCell id="mui" value="Material-UI&#xa;(UI Components)" style="rounded=1;whiteSpace=wrap;html=1;fillColor=#fff2cc;strokeColor=#d6b656;" vertex="1" parent="frontend-layer">
          <mxGeometry y="90" width="200" height="40" as="geometry" />
        </mxCell>
        
        <mxCell id="redux" value="Redux Toolkit&#xa;(State Management)" style="rounded=1;whiteSpace=wrap;html=1;fillColor=#fff2cc;strokeColor=#d6b656;" vertex="1" parent="frontend-layer">
          <mxGeometry y="140" width="200" height="40" as="geometry" />
        </mxCell>

        <!-- Backend Layer -->
        <mxCell id="backend-layer" value="Backend Layer" style="swimlane;fontStyle=1;align=center;verticalAlign=top;childLayout=stackLayout;horizontal=1;startSize=30;horizontalStack=0;resizeParent=1;resizeParentMax=0;resizeLast=0;collapsible=1;marginBottom=0;whiteSpace=wrap;html=1;fillColor=#ffe6cc;strokeColor=#d79b00;" vertex="1" parent="1">
          <mxGeometry x="520" y="80" width="200" height="200" as="geometry" />
        </mxCell>
        
        <mxCell id="flask" value="Flask API&#xa;(Python)" style="rounded=1;whiteSpace=wrap;html=1;fillColor=#fff2cc;strokeColor=#d6b656;" vertex="1" parent="backend-layer">
          <mxGeometry y="40" width="200" height="40" as="geometry" />
        </mxCell>
        
        <mxCell id="jwt" value="JWT Authentication&#xa;(Flask-JWT-Extended)" style="rounded=1;whiteSpace=wrap;html=1;fillColor=#fff2cc;strokeColor=#d6b656;" vertex="1" parent="backend-layer">
          <mxGeometry y="90" width="200" height="40" as="geometry" />
        </mxCell>
        
        <mxCell id="aws" value="AWS S3 Service&#xa;(File Storage)" style="rounded=1;whiteSpace=wrap;html=1;fillColor=#fff2cc;strokeColor=#d6b656;" vertex="1" parent="backend-layer">
          <mxGeometry y="140" width="200" height="40" as="geometry" />
        </mxCell>
        
        <mxCell id="opencv" value="OpenCV/Pillow&#xa;(Image Processing)" style="rounded=1;whiteSpace=wrap;html=1;fillColor=#fff2cc;strokeColor=#d6b656;" vertex="1" parent="backend-layer">
          <mxGeometry y="190" width="200" height="40" as="geometry" />
        </mxCell>

        <!-- Database Layer -->
        <mxCell id="db-layer" value="Database Layer" style="swimlane;fontStyle=1;align=center;verticalAlign=top;childLayout=stackLayout;horizontal=1;startSize=30;horizontalStack=0;resizeParent=1;resizeParentMax=0;resizeLast=0;collapsible=1;marginBottom=0;whiteSpace=wrap;html=1;fillColor=#e1d5e7;strokeColor=#9673a6;" vertex="1" parent="1">
          <mxGeometry x="760" y="80" width="200" height="120" as="geometry" />
        </mxCell>
        
        <mxCell id="mongodb" value="MongoDB&#xa;(NoSQL Database)" style="rounded=1;whiteSpace=wrap;html=1;fillColor=#fff2cc;strokeColor=#d6b656;" vertex="1" parent="db-layer">
          <mxGeometry y="40" width="200" height="60" as="geometry" />
        </mxCell>

        <!-- Extensions Layer -->
        <mxCell id="ext-layer" value="Extensions Layer" style="swimlane;fontStyle=1;align=center;verticalAlign=top;childLayout=stackLayout;horizontal=1;startSize=30;horizontalStack=0;resizeParent=1;resizeParentMax=0;resizeLast=0;collapsible=1;marginBottom=0;whiteSpace=wrap;html=1;fillColor=#f8cecc;strokeColor=#b85450;" vertex="1" parent="1">
          <mxGeometry x="1000" y="80" width="200" height="120" as="geometry" />
        </mxCell>
        
        <mxCell id="cep" value="CEP_PTS&#xa;(Adobe Extension)" style="rounded=1;whiteSpace=wrap;html=1;fillColor=#fff2cc;strokeColor=#d6b656;" vertex="1" parent="ext-layer">
          <mxGeometry y="40" width="200" height="40" as="geometry" />
        </mxCell>
        
        <mxCell id="spy" value="Spy Crawl Ideal&#xa;(Data Crawler)" style="rounded=1;whiteSpace=wrap;html=1;fillColor=#fff2cc;strokeColor=#d6b656;" vertex="1" parent="ext-layer">
          <mxGeometry y="90" width="200" height="40" as="geometry" />
        </mxCell>

        <!-- Docker Container -->
        <mxCell id="docker-container" value="Docker Container" style="swimlane;fontStyle=1;align=center;verticalAlign=top;childLayout=stackLayout;horizontal=1;startSize=30;horizontalStack=0;resizeParent=1;resizeParentMax=0;resizeLast=0;collapsible=1;marginBottom=0;whiteSpace=wrap;html=1;fillColor=#d5e8d4;strokeColor=#82b366;dashed=1;" vertex="1" parent="1">
          <mxGeometry x="280" y="280" width="680" height="100" as="geometry" />
        </mxCell>
        
        <mxCell id="docker-text" value="Docker Compose Environment&#xa;Frontend:3030, Backend:5000, MongoDB:27017" style="text;html=1;strokeColor=none;fillColor=none;align=center;verticalAlign=middle;whiteSpace=wrap;rounded=0;fontSize=12;" vertex="1" parent="docker-container">
          <mxGeometry y="40" width="680" height="40" as="geometry" />
        </mxCell>

        <!-- Connections -->
        <mxCell id="conn1" value="HTTP/HTTPS" style="edgeStyle=orthogonalEdgeStyle;rounded=0;orthogonalLoop=1;jettySize=auto;html=1;strokeColor=#666666;strokeWidth=2;" edge="1" parent="1" source="browser" target="nextjs">
          <mxGeometry relative="1" as="geometry" />
        </mxCell>
        
        <mxCell id="conn2" value="REST API" style="edgeStyle=orthogonalEdgeStyle;rounded=0;orthogonalLoop=1;jettySize=auto;html=1;strokeColor=#666666;strokeWidth=2;" edge="1" parent="1" source="nextjs" target="flask">
          <mxGeometry relative="1" as="geometry" />
        </mxCell>
        
        <mxCell id="conn3" value="MongoDB Driver" style="edgeStyle=orthogonalEdgeStyle;rounded=0;orthogonalLoop=1;jettySize=auto;html=1;strokeColor=#666666;strokeWidth=2;" edge="1" parent="1" source="flask" target="mongodb">
          <mxGeometry relative="1" as="geometry" />
        </mxCell>
        
        <mxCell id="conn4" value="AWS SDK" style="edgeStyle=orthogonalEdgeStyle;rounded=0;orthogonalLoop=1;jettySize=auto;html=1;strokeColor=#666666;strokeWidth=2;" edge="1" parent="1" source="flask" target="aws">
          <mxGeometry relative="1" as="geometry" />
        </mxCell>
        
        <mxCell id="conn5" value="API Integration" style="edgeStyle=orthogonalEdgeStyle;rounded=0;orthogonalLoop=1;jettySize=auto;html=1;strokeColor=#666666;strokeWidth=2;" edge="1" parent="1" source="cep" target="flask">
          <mxGeometry relative="1" as="geometry" />
        </mxCell>

        <!-- Features Section -->
        <mxCell id="features-title" value="Key Features" style="text;html=1;strokeColor=none;fillColor=none;align=center;verticalAlign=middle;whiteSpace=wrap;rounded=0;fontSize=18;fontStyle=1;" vertex="1" parent="1">
          <mxGeometry x="40" y="420" width="200" height="30" as="geometry" />
        </mxCell>
        
        <mxCell id="feature1" value="• Product Management (Ideals)&#xa;• Multi-market Support (Amazon, Etsy, TikTok, eBay)&#xa;• Image Processing &amp; Banner Generation&#xa;• Kanban Workflow Management&#xa;• Role-based Access Control&#xa;• AWS S3 File Storage&#xa;• Export Listing (Excel/CSV)&#xa;• Team Collaboration" style="text;html=1;strokeColor=none;fillColor=#f5f5f5;align=left;verticalAlign=top;whiteSpace=wrap;rounded=1;fontSize=12;" vertex="1" parent="1">
          <mxGeometry x="40" y="460" width="300" height="160" as="geometry" />
        </mxCell>

        <!-- Tech Stack Section -->
        <mxCell id="tech-title" value="Technology Stack" style="text;html=1;strokeColor=none;fillColor=none;align=center;verticalAlign=middle;whiteSpace=wrap;rounded=0;fontSize=18;fontStyle=1;" vertex="1" parent="1">
          <mxGeometry x="400" y="420" width="200" height="30" as="geometry" />
        </mxCell>
        
        <mxCell id="tech-stack" value="Frontend:&#xa;• Next.js 15.1.2&#xa;• TypeScript&#xa;• Material-UI 6.4.11&#xa;• Redux Toolkit&#xa;• React Hook Form&#xa;• Axios&#xa;&#xa;Backend:&#xa;• Flask 2.3.3&#xa;• Python 3.12&#xa;• MongoDB&#xa;• JWT Authentication&#xa;• AWS S3&#xa;• OpenCV/Pillow&#xa;&#xa;Infrastructure:&#xa;• Docker &amp; Docker Compose&#xa;• MongoDB Atlas (optional)" style="text;html=1;strokeColor=none;fillColor=#f5f5f5;align=left;verticalAlign=top;whiteSpace=wrap;rounded=1;fontSize=12;" vertex="1" parent="1">
          <mxGeometry x="400" y="460" width="300" height="200" as="geometry" />
        </mxCell>

        <!-- Database Schema Section -->
        <mxCell id="db-title" value="Database Collections" style="text;html=1;strokeColor=none;fillColor=none;align=center;verticalAlign=middle;whiteSpace=wrap;rounded=0;fontSize=18;fontStyle=1;" vertex="1" parent="1">
          <mxGeometry x="760" y="420" width="200" height="30" as="geometry" />
        </mxCell>
        
        <mxCell id="db-collections" value="Core Collections:&#xa;• users (authentication &amp; roles)&#xa;• teams (multi-tenancy)&#xa;• product_ideals (main products)&#xa;• designs (workflow tasks)&#xa;• mockups (templates)&#xa;• shops (store management)&#xa;&#xa;Supporting Collections:&#xa;• tags (categorization)&#xa;• notes (collaboration)&#xa;• design_actions (automation)&#xa;• teamexp_design_columns (kanban)" style="text;html=1;strokeColor=none;fillColor=#f5f5f5;align=left;verticalAlign=top;whiteSpace=wrap;rounded=1;fontSize=12;" vertex="1" parent="1">
          <mxGeometry x="760" y="460" width="300" height="160" as="geometry" />
        </mxCell>

      </root>
    </mxGraphModel>
  </diagram>
</mxfile> 